<svg id="Layer_1" data-name="Layer 1" xmlns="http://www.w3.org/2000/svg" xmlns:xlink="http://www.w3.org/1999/xlink" viewBox="50 200 700 200"><defs><style>.cls-1{fill:none;}.cls-2{clip-path:url(#clip-path);}.cls-3{fill:#009e9b;}.cls-4{fill:#75e19f;}.cls-5{fill:#006173;}</style><clipPath id="clip-path"><rect class="cls-1" width="841.89" height="595.28"/></clipPath></defs><title>Artboard 1</title><g class="cls-2"><path class="cls-3" d="M182.84,334.94H113.62A22.36,22.36,0,0,1,94.05,323.4L80.63,299.11a6.8,6.8,0,0,1,6-10.1H194l7.72,14a21.54,21.54,0,0,1-18.86,32"/><path class="cls-4" d="M194,289H121.56l-18.88-34.15a13.18,13.18,0,0,1,11.54-19.56h42.3a13.18,13.18,0,0,1,11.54,6.8Z"/><path class="cls-5" d="M114.44,334.94h-.82A22.36,22.36,0,0,1,94.05,323.4L80.63,299.12a6.81,6.81,0,0,1,6-10.11h35l9.66,17.48a19.17,19.17,0,0,1-16.78,28.45"/><path d="M247,244.59h36.76v58.73c0,21.87-11,31.52-29.08,31.52H254c-17.93,0-29.07-9.51-29.07-31.52V290.27H235v13.05c0,16.3,5.71,22.28,19,22.28h.68c13.32,0,18.89-6,18.89-22.28v-29.9a23.67,23.67,0,0,1,9.33-18.83l.82-.63H247Z"/><path d="M360.61,302.91H312.24v.55c0,16.16,7.34,22.28,18.89,22.28h.68c8.56,0,14.94-3.26,17.79-11.14h9.92c-3.53,13.86-14,20.24-27.71,20.24h-.68c-17.26,0-28.81-9.78-28.81-31.38v-6.25c0-21.74,11.69-31.39,28.81-31.39h.68c17.25,0,28.8,9.78,28.8,31.39Zm-29.48-28c-11,0-18.21,5.57-18.89,20h38.45c-.68-14.41-7.88-20-18.88-20Z"/><path d="M438.72,302.91H390.35v.55c0,16.16,7.34,22.28,18.88,22.28h.68c8.56,0,14.95-3.26,17.8-11.14h9.92c-3.53,13.86-14,20.24-27.72,20.24h-.68c-17.25,0-28.8-9.78-28.8-31.38v-6.25c0-21.74,11.68-31.39,28.8-31.39h.68c17.26,0,28.81,9.78,28.81,31.39Zm-29.49-28c-11,0-18.2,5.57-18.88,20H428.8c-.68-14.41-7.88-20-18.89-20Z"/><path d="M481.14,324.38c-2.31,0-3.53-1.09-3.53-3.81V276.29h0v-31.7H442.28v9.26h35.3l-.81.61a23.37,23.37,0,0,0-9.21,18.6v44c0,9.78,5.43,16.44,15.62,16.44h23.91v-9.1Z"/><path d="M560.64,244.59c17.25,0,27.85,8.29,27.85,27.85v-1.73c0,19.56-10.6,27.85-27.85,27.85H538v34.92H527.89V244.59Zm17.8,27.85c0-14.13-5.44-18.48-17.8-18.48H538v35.23h22.69c12.36,0,17.8-4.35,17.8-18.48Z"/><path d="M656.29,324.38h11.82v9.1H647.46l-.81-13.31h-1.5c-3.12,7.06-11.55,14.67-24.59,14.67H620c-9.24,0-19.3-5.16-19.3-17.39v-.82c0-11.41,9-16.57,24.32-18.47l21.47-2.72V292c0-11.28-4.35-17.25-15.63-17.25h-.54c-10.05,0-15.9,4.75-17,15.35H602.9c1.49-15.76,11.68-24.32,27.85-24.32H631c17.94,0,25.27,9.65,25.27,26.63ZM622.05,326c11.14,0,24.46-6.79,24.46-22.42v-.27l-20.11,2.44c-11.28,1.36-15.9,4.35-15.9,10.6v.82c0,5.57,4.22,8.83,11,8.83Z"/><path d="M728.69,267.18h10.47l-28.94,76.36c-3.67,9.78-9.92,16.44-21.47,16.44H676.52V350.6H693.1c3.53,0,5-1.36,6.11-4.48l5.16-12.64h-4.62l-25-66.3h10.47l20.65,57.06h1.9Z"/></g></svg>